<svg width="18" height="17" viewBox="0 0 18 17" fill="none" xmlns="http://www.w3.org/2000/svg">
<path d="M1.95644 12.5386L2.03363 12.2255L1.85947 11.9541C1.15206 10.8515 0.75 9.57468 0.75 8.21407C0.75 4.15481 4.37768 0.75 9 0.75C13.6223 0.75 17.25 4.15481 17.25 8.21407C17.25 12.2734 13.6223 15.6781 9 15.6781C7.9435 15.6781 6.9357 15.4986 6.01037 15.1728L5.79663 15.0976L5.57698 15.1533L1.27099 16.2449L1.4553 16.9719L1.27099 16.2449C1.21996 16.2579 1.17413 16.2453 1.13465 16.2052C1.09461 16.1646 1.07609 16.1095 1.09209 16.0446L1.95644 12.5386Z" stroke="#999999" stroke-width="1.5"/>
</svg>
