<svg width="18" height="16" viewBox="0 0 18 16" fill="none" xmlns="http://www.w3.org/2000/svg">
<path d="M8.45893 2.66017L9 3.22385L9.54107 2.66017L10.1576 2.01785C11.7803 0.327384 14.3979 0.327383 16.0206 2.01785C17.6153 3.67919 17.6655 6.36947 16.131 8.09485L10.9773 13.8898C10.6517 14.256 10.2924 14.6113 9.92613 14.8707C9.55157 15.136 9.24129 15.25 9 15.25C8.7587 15.25 8.44842 15.136 8.07386 14.8707C7.70761 14.6113 7.34829 14.256 7.02266 13.8898L1.86897 8.09488C0.334504 6.36949 0.384749 3.67921 1.97945 2.01786C3.60211 0.327395 6.21974 0.327396 7.84239 2.01787L8.45893 2.66017Z" stroke="#999999" stroke-width="1.5"/>
</svg>
